<svg height="96" viewBox="0 0 622 96" width="622" xmlns="http://www.w3.org/2000/svg"><path d="m403.786602 159.746742-1.803785 9.937469c-.00316.013546-.005264.027093-.007377.04064l-.011323.062382c-.209573 1.334396-.510912 2.668319-.510912 4.002241 0 5.578947 5.60257 7.68421 10.359469 7.68421 6.765367 0 12.685063-2.210526 17.124835-3.789473l3.382684 10.842105c-6.342532 3.68421-14.587823 5.894737-25.053 5.894737-11.627975 0-23.467367-4.842106-23.467367-18.210527 0-4.315789 1.479924-10.315789 2.219886-14.736842 2.854139-15.578947 15.962038-24.842105 31.289822-24.842105 11.20514 0 20.824646 5.789474 20.824646 17.894737 0 4.526316-1.374215 10.631579-2.219886 15.157895h-25.837452l1.751154-9.789474h9.709893c.211418-1.368421.528544-2.736842.528544-4.105263 0-4.421053-3.171266-6.631579-7.39962-6.631579-5.391152 0-9.090962 3.263158-10.359468 8.105263-.097218.38723-.462659 1.842832-.520743 2.483584zm-188.589175 19.30589 7.094714-14.421053h6.753695l-4.016937-28.210526h-.317126l-12.9084 26.296678-14.331026 29.129923-.667713 1.310241h-17.970507l39.95795-75.157895h19.873265l12.896481 75.157895h-18.49905l-2.114178-14.105263zm60.673652 34.947368c-8.668126 0-16.067746-2.315789-21.881734-6.631579l8.773836-10.947368c4.439772 3.052631 9.936633 4.210526 15.010658 4.210526 7.39962 0 12.367936-3.789474 13.636443-11.052632.422835-1.894736.634253-3.789473.95138-5.68421h-.422836c-4.439772 4.631579-9.619506 6.947368-15.962038 6.947368-10.14805 0-17.547671-4.631579-17.547671-15.473684 0-1.578947.211418-3.263158.528545-5.052632.739962-4.631578 1.691341-9.578947 2.431303-13.68421 2.219887-12.210526 10.25376-20 23.678785-20 4.968317 0 12.05081 1.894737 14.693532 6.526316h.317126l.95138-5.368421h16.384873c-1.479924 8.315789-7.505329 42.421052-8.985253 50.842105-2.959848 16.842105-15.856329 25.368421-32.558329 25.368421zm8.245291-35.894737c5.813988 0 10.042342-3.68421 10.993722-9.473684 1.374215-7.684211 2.008468-10.31579 2.008468-11.894737 0-4.842105-3.69981-7.157895-8.773835-7.157895-5.708279 0-9.196671 3.894737-10.25376 9.684211-1.374215 7.68421-1.79705 10-1.79705 11.68421 0 4.736843 3.276974 7.157895 7.822455 7.157895zm53.594393 16.31579c-10.042342 0-17.230545-5.157895-17.230545-15.684211 0-1.578947.105709-3.157895.422836-4.736842 1.057088-5.684211 2.008468-11.263158 3.065557-16.842105 2.219886-12.421053 12.156519-20.421053 24.630164-20.421053 4.862608 0 10.993722 1.894737 13.742152 6.105263h.105709l4.439772-24.736842h17.019127l-13.319317 75.052632h-16.596291l1.162798-6.526316h-.422836c-4.016937 4.631579-10.888012 7.789474-17.019126 7.789474zm8.456708-13.157895c5.813988 0 10.25376-4 11.20514-9.684211l2.431303-13.368421c.105709-.631579.211418-1.263158.211418-1.894737 0-4.736842-3.911228-7.157894-8.351-7.157894-5.813987 0-9.830924 4.210526-10.888012 9.789473l-2.325595 13.052632c-.105709.631579-.105709 1.263158-.105709 1.894737 0 4.631579 3.382683 7.368421 7.822455 7.368421zm95.772228 11.894737 9.830924-55.368421h16.702l-1.691342 9.263158h.528544c3.911228-5.473685 11.839393-10.210527 18.60476-10.210527 1.479924 0 3.594101.105263 5.179734.526316l-2.642722 14.631579c-2.537012-.421053-6.131113-.631579-7.716746-.631579-7.399621 0-14.90495 3.368421-16.596291 12.947368l-5.074026 28.842106zm164.4488-31.377391-1.303894 6.952637c-.110057.550822-.188661 1.032503-.23581 1.44504-.572533 3.254342-.821937 4.737368-.821937 6.137608 0 6.842106 5.391152 10.31579 12.473646 10.31579 7.822455 0 14.376405-3.473684 17.759088-5.473684l3.065557 6.105263c-5.074025 4.736842-13.953569 7.157895-22.727405 7.157895-10.993721 0-20.40181-5.052632-20.40181-16.842106 0-3.789473 1.162798-8.421052 2.325595-15.68421 2.642722-14.105263 13.530734-22.947369 27.272886-22.947369 10.570886 0 18.499051 5.263158 18.499051 16.210527 0 3.473684-.95138 8.315789-1.797051 13.68421h-27.326l1.186266-6.631579h18.000152c.422835-2.842105.634253-4.210526.634253-5.578947 0-6.210526-3.69981-9.789474-10.570886-9.789474-8.404374 0-13.781016 5.51011-15.403618 12.19085-.164533.411727-.287174.865167-.367923 1.36032l-.033275.177429c-.095871.42861-.180937.866335-.226885 1.2098zm164.182666-21.777455h9.428835l-9.35833 53.154846h-9.090962l1.479924-8.105263h-.317126c-4.439772 6-12.262228 9.368421-17.970507 9.368421-10.042341 0-16.807708-5.578948-16.807708-15.263158 0-1.473684.105709-2.736842.422835-4.210527l2.642722-15.263157c2.431303-13.263158 11.733683-20.736843 23.784493-20.736843 5.60257 0 12.262228 2.736843 14.270696 8.421053h.211418zm-21.916938 46.418004c7.188203 0 14.799241-5.473685 16.279165-14.105264l2.114177-12c.211418-.947368.317127-1.894736.317127-2.842105 0-6.947368-5.391152-10.736842-11.733684-10.736842-7.082494 0-13.530734 4.421053-14.904949 12.421053l-2.854139 15.473684c-.105709.842105-.211418 1.578947-.211418 2.421053 0 6 4.545481 9.368421 10.993721 9.368421zm-239.236799 6.736842 13.213608-75.052632h12.156519l14.164987 46.631579h.211418l29.809898-46.631579h13.00219l-13.319316 75.052632h-9.830924l10.042341-56.842106h-.422835l-27.80143 42.631579h-8.033874l-13.002189-42.421052h-.422836l-9.936633 56.631579zm156.088947 1.263158c-10.042342 0-16.807709-5.578948-16.807709-15.263158 0-1.473684.105709-2.736842.422836-4.210527l2.642721-15.263157c2.431304-13.263158 11.733684-20.736843 23.784494-20.736843 5.602569 0 12.262228 2.736843 14.270696 8.421053h.211418l5.179734-29.263158h9.408088l-13.213607 75.052632h-9.090962l1.479924-8.105263h-.317127c-4.439772 6-12.262228 9.368421-17.970506 9.368421zm3.911228-8c7.188202 0 14.79924-5.473685 16.279164-14.105264l2.114178-12c.211417-.947368.317126-1.894736.317126-2.842105 0-6.947368-5.391152-10.736842-11.733683-10.736842-7.082494 0-13.530734 4.421053-14.90495 12.421053l-2.854139 15.473684c-.105709.842105-.211418 1.578947-.211418 2.421053 0 6 4.545481 9.368421 10.993722 9.368421zm35.09156 6.736842 9.408088-53.157895h9.30238l-9.30238 53.157895zm10.993721-62.736842 2.325595-12.210527h9.408089l-2.325595 12.210527zm-542.533757 34.278932c-7.806545 0-14.135-6.327968-14.135-14.133912 0-7.805943 6.328455-14.133911 14.135-14.133911s14.135 6.327968 14.135 14.133911c0 7.805944-6.328455 14.133912-14.135 14.133912z" fill-rule="evenodd" transform="translate(-158 -118)"/></svg>